<svg width="438" height="70" viewBox="0 0 438 70" fill="none" xmlns="http://www.w3.org/2000/svg">
<path d="M25.6964 25.6666V31.6666C25.6964 31.6666 26.6106 31.6666 27.1964 31.6666M20.1964 25.1667C24.5913 25.1667 28.2701 25.1667 29.1964 25.1667C31.1964 25.1667 32.0297 24.5 32.1964 24.1666C36.1964 19.6666 32.6964 18.6666 32.1964 17.1666C31.7964 15.9666 29.1975 12.3333 27.9481 10.6667C19.1998 0.166667 15.6964 10.6667 12.1964 10.6667C9.39635 10.6667 6.36302 13.3333 5.19635 14.6667C-2.40365 19.4667 2.02969 23.6667 5.19635 25.1667C6.16493 25.1667 7.59641 25.1667 9.19635 25.1667M20.1964 25.1667V33.6666M20.1964 25.1667C20.1964 25.1667 17.7188 25.1667 14.6964 25.1667M20.1964 25.1667H14.6964M14.6964 25.1667V33.6666M14.6964 25.1667C12.9205 25.1667 10.9565 25.1667 9.19635 25.1667M9.19635 25.1667V32.1666H7.69635" stroke="url(#paint0_linear)"/>
<mask id="path-2-inside-1" fill="white">
<path fill-rule="evenodd" clip-rule="evenodd" d="M7 32.5C7 33.3284 6.32843 34 5.5 34C4.67157 34 4 33.3284 4 32.5C4 31.6716 4.67157 31 5.5 31C6.32843 31 7 31.6716 7 32.5ZM8 32.5C8 33.8807 6.88071 35 5.5 35C4.11929 35 3 33.8807 3 32.5C3 31.1193 4.11929 30 5.5 30C6.88071 30 8 31.1193 8 32.5ZM31 32.5C31 33.3284 30.3284 34 29.5 34C28.6716 34 28 33.3284 28 32.5C28 31.6716 28.6716 31 29.5 31C30.3284 31 31 31.6716 31 32.5ZM32 32.5C32 33.8807 30.8807 35 29.5 35C28.1193 35 27 33.8807 27 32.5C27 31.1193 28.1193 30 29.5 30C30.8807 30 32 31.1193 32 32.5ZM20.5 37C21.3284 37 22 36.3284 22 35.5C22 34.6716 21.3284 34 20.5 34C19.6716 34 19 34.6716 19 35.5C19 36.3284 19.6716 37 20.5 37ZM20.5 38C21.8807 38 23 36.8807 23 35.5C23 34.1193 21.8807 33 20.5 33C19.1193 33 18 34.1193 18 35.5C18 36.8807 19.1193 38 20.5 38ZM16 35.5C16 36.3284 15.3284 37 14.5 37C13.6716 37 13 36.3284 13 35.5C13 34.6716 13.6716 34 14.5 34C15.3284 34 16 34.6716 16 35.5ZM17 35.5C17 36.8807 15.8807 38 14.5 38C13.1193 38 12 36.8807 12 35.5C12 34.1193 13.1193 33 14.5 33C15.8807 33 17 34.1193 17 35.5Z"/>
</mask>
<path d="M5.5 35C6.88071 35 8 33.8807 8 32.5H6C6 32.7761 5.77614 33 5.5 33V35ZM3 32.5C3 33.8807 4.11929 35 5.5 35V33C5.22386 33 5 32.7761 5 32.5H3ZM5.5 30C4.11929 30 3 31.1193 3 32.5H5C5 32.2239 5.22386 32 5.5 32V30ZM8 32.5C8 31.1193 6.88071 30 5.5 30V32C5.77614 32 6 32.2239 6 32.5H8ZM5.5 36C7.433 36 9 34.433 9 32.5H7C7 33.3284 6.32843 34 5.5 34V36ZM2 32.5C2 34.433 3.567 36 5.5 36V34C4.67157 34 4 33.3284 4 32.5H2ZM5.5 29C3.567 29 2 30.567 2 32.5H4C4 31.6716 4.67157 31 5.5 31V29ZM9 32.5C9 30.567 7.433 29 5.5 29V31C6.32843 31 7 31.6716 7 32.5H9ZM29.5 35C30.8807 35 32 33.8807 32 32.5H30C30 32.7761 29.7761 33 29.5 33V35ZM27 32.5C27 33.8807 28.1193 35 29.5 35V33C29.2239 33 29 32.7761 29 32.5H27ZM29.5 30C28.1193 30 27 31.1193 27 32.5H29C29 32.2239 29.2239 32 29.5 32V30ZM32 32.5C32 31.1193 30.8807 30 29.5 30V32C29.7761 32 30 32.2239 30 32.5H32ZM29.5 36C31.433 36 33 34.433 33 32.5H31C31 33.3284 30.3284 34 29.5 34V36ZM26 32.5C26 34.433 27.567 36 29.5 36V34C28.6716 34 28 33.3284 28 32.5H26ZM29.5 29C27.567 29 26 30.567 26 32.5H28C28 31.6716 28.6716 31 29.5 31V29ZM33 32.5C33 30.567 31.433 29 29.5 29V31C30.3284 31 31 31.6716 31 32.5H33ZM21 35.5C21 35.7761 20.7761 36 20.5 36V38C21.8807 38 23 36.8807 23 35.5H21ZM20.5 35C20.7761 35 21 35.2239 21 35.5H23C23 34.1193 21.8807 33 20.5 33V35ZM20 35.5C20 35.2239 20.2239 35 20.5 35V33C19.1193 33 18 34.1193 18 35.5H20ZM20.5 36C20.2239 36 20 35.7761 20 35.5H18C18 36.8807 19.1193 38 20.5 38V36ZM22 35.5C22 36.3284 21.3284 37 20.5 37V39C22.433 39 24 37.433 24 35.5H22ZM20.5 34C21.3284 34 22 34.6716 22 35.5H24C24 33.567 22.433 32 20.5 32V34ZM19 35.5C19 34.6716 19.6716 34 20.5 34V32C18.567 32 17 33.567 17 35.5H19ZM20.5 37C19.6716 37 19 36.3284 19 35.5H17C17 37.433 18.567 39 20.5 39V37ZM14.5 38C15.8807 38 17 36.8807 17 35.5H15C15 35.7761 14.7761 36 14.5 36V38ZM12 35.5C12 36.8807 13.1193 38 14.5 38V36C14.2239 36 14 35.7761 14 35.5H12ZM14.5 33C13.1193 33 12 34.1193 12 35.5H14C14 35.2239 14.2239 35 14.5 35V33ZM17 35.5C17 34.1193 15.8807 33 14.5 33V35C14.7761 35 15 35.2239 15 35.5H17ZM14.5 39C16.433 39 18 37.433 18 35.5H16C16 36.3284 15.3284 37 14.5 37V39ZM11 35.5C11 37.433 12.567 39 14.5 39V37C13.6716 37 13 36.3284 13 35.5H11ZM14.5 32C12.567 32 11 33.567 11 35.5H13C13 34.6716 13.6716 34 14.5 34V32ZM18 35.5C18 33.567 16.433 32 14.5 32V34C15.3284 34 16 34.6716 16 35.5H18Z" fill="url(#paint1_linear)" mask="url(#path-2-inside-1)"/>
<path d="M92.5 25V34.5H112.5V25M92.5 25H90L93 19.5C93 19.5 98.79 19.5 102.5 19.5M92.5 25H100M112.5 25H115L112 19.5C112 19.5 106.21 19.5 102.5 19.5M112.5 25H105M102.5 25V34M102.5 25H100M102.5 25H105M102.5 19.5C101.524 21.6479 100 25 100 25M102.5 19.5L105 25" stroke="#D9DADE"/>
<path d="M100.5 15C99.1667 14.6667 96.5 13.2 96.5 10C96.5 6 97 3.5 102.5 3" stroke="#D9DADE"/>
<path d="M104 15C105.333 14.6667 108 13.2 108 10C108 6 107.5 3.5 102 3" stroke="#D9DADE"/>
<path d="M99.5 15C99.3333 13.5 99.7 10.5 102.5 10.5C103.5 10.5 105.4 11.4 105 15M99 15.5H106V17.5H99V15.5Z" stroke="#D9DADE"/>
<path d="M169.5 23L178 15L182.5 18.5L192.9 8.5M195.5 6L192.9 8.5M192.9 8.5H168V25.5H192.9V8.5Z" stroke="#D9DADE"/>
<path d="M165 30.5L168 25.5H193L196 30.5M165 30.5H196M165 30.5V34H196V30.5M193.5 5H196.5M196.5 5L195.5 6M196.5 5V7.5" stroke="#D9DADE"/>
<circle cx="258" cy="20.5" r="4.5" stroke="#D9DADE"/>
<circle cx="258" cy="20.5" r="8.5" stroke="#D9DADE"/>
<circle cx="258" cy="20.5" r="13.5" stroke="#D9DADE"/>
<path d="M258 20.5L270.5 8.5M270.5 8.5V5.5L273.5 2V5H277L273.5 8.5H270.5Z" stroke="#D9DADE"/>
<circle cx="340" cy="20" r="6.5" stroke="#D9DADE"/>
<path d="M334 20C334 20 341.314 20 346 20M342.5 14V26M340 13.5V26M337 14V26" stroke="#D9DADE"/>
<path d="M327 13C327.167 18.1667 330 29.4 340 33" stroke="#D9DADE"/>
<path d="M323 10C323.218 16.7167 326.923 31.32 340 36" stroke="#D9DADE"/>
<path d="M353 14C352.833 18.9083 350 29.58 340 33" stroke="#D9DADE"/>
<path d="M357 10C356.782 16.7167 353.077 31.32 340 36" stroke="#D9DADE"/>
<path d="M340 8.5C338.333 10.1667 333.4 13.4 327 13" stroke="#D9DADE"/>
<path d="M340 4C337.821 6.20558 331.369 10.4844 323 9.95507" stroke="#D9DADE"/>
<path d="M340 8C341.667 10.2056 346.6 14.4844 353 13.9551" stroke="#D9DADE"/>
<path d="M340 4C342.179 6.20558 348.631 10.4844 357 9.95507" stroke="#D9DADE"/>
<circle cx="417" cy="17" r="6.5" stroke="#D9DADE"/>
<circle cx="417" cy="17" r="9.5" stroke="#D9DADE"/>
<circle cx="417" cy="17" r="12.5" stroke="#D9DADE"/>
<path d="M410.5 17.5H423.5" stroke="#D9DADE"/>
<path d="M414.5 11V23" stroke="#D9DADE"/>
<path d="M417.5 10.5V23.5" stroke="#D9DADE"/>
<path d="M420 11.5V23" stroke="#D9DADE"/>
<path d="M434.5 36.5L426.5 28.5L426 26.5L428.5 27L436.5 34.5C437.3 36.5 435.5 36.6667 434.5 36.5Z" stroke="#D9DADE"/>
<circle cx="181" cy="62" r="3.5" transform="rotate(-90 181 62)" stroke="#D9DADE"/>
<circle cx="261" cy="62" r="3.5" transform="rotate(-90 261 62)" stroke="#D9DADE"/>
<circle cx="340" cy="62" r="3.5" transform="rotate(-90 340 62)" stroke="#D9DADE"/>
<circle cx="420" cy="62" r="3.5" transform="rotate(-90 420 62)" stroke="#D9DADE"/>
<circle cx="103" cy="62" r="3.5" transform="rotate(-90 103 62)" stroke="#D9DADE"/>
<path d="M420 62L107 62" stroke="#D9DADE"/>
<circle cx="20" cy="62" r="8" transform="rotate(-90 20 62)" fill="url(#paint2_linear)"/>
<circle cx="20" cy="62" r="4" transform="rotate(-90 20 62)" fill="#606FFC"/>
<path d="M28 62L99 62" stroke="#8995E7"/>
<defs>
<linearGradient id="paint0_linear" x1="7.61811" y1="30.9" x2="24.3053" y2="6.73955" gradientUnits="userSpaceOnUse">
<stop stop-color="#B1DEFD"/>
<stop offset="1" stop-color="#B2B6E5"/>
</linearGradient>
<linearGradient id="paint1_linear" x1="8.8" y1="37.2" x2="11.0354" y2="27.3906" gradientUnits="userSpaceOnUse">
<stop stop-color="#B1DEFD"/>
<stop offset="1" stop-color="#B2B6E5"/>
</linearGradient>
<linearGradient id="paint2_linear" x1="15.2" y1="68.4" x2="25.3333" y2="56.1333" gradientUnits="userSpaceOnUse">
<stop stop-color="#B1DEFD"/>
<stop offset="1" stop-color="#B2B6E5"/>
</linearGradient>
</defs>
</svg>
