<svg width="193" height="459" viewBox="0 0 193 459" fill="none" xmlns="http://www.w3.org/2000/svg">
<path d="M25.6964 20.6666V26.6666C25.6964 26.6666 26.6106 26.6666 27.1964 26.6666M20.1964 20.1667C24.5913 20.1667 28.2701 20.1667 29.1964 20.1667C31.1964 20.1667 32.0297 19.5 32.1964 19.1666C36.1964 14.6666 32.6964 13.6666 32.1964 12.1666C31.7964 10.9666 29.1975 7.33332 27.9481 5.66667C19.1998 -4.83333 15.6964 5.66667 12.1964 5.66667C9.39635 5.66667 6.36302 8.33333 5.19635 9.66667C-2.40365 14.4667 2.02969 18.6667 5.19635 20.1667C6.16493 20.1667 7.59641 20.1667 9.19635 20.1667M20.1964 20.1667V28.6666M20.1964 20.1667C20.1964 20.1667 17.7188 20.1667 14.6964 20.1667M20.1964 20.1667H14.6964M14.6964 20.1667V28.6666M14.6964 20.1667C12.9205 20.1667 10.9565 20.1667 9.19635 20.1667M9.19635 20.1667V27.1666H7.69635" stroke="url(#paint0_linear)"/>
<mask id="path-2-inside-1" fill="white">
<path fill-rule="evenodd" clip-rule="evenodd" d="M7 27.5C7 28.3284 6.32843 29 5.5 29C4.67157 29 4 28.3284 4 27.5C4 26.6716 4.67157 26 5.5 26C6.32843 26 7 26.6716 7 27.5ZM8 27.5C8 28.8807 6.88071 30 5.5 30C4.11929 30 3 28.8807 3 27.5C3 26.1193 4.11929 25 5.5 25C6.88071 25 8 26.1193 8 27.5ZM31 27.5C31 28.3284 30.3284 29 29.5 29C28.6716 29 28 28.3284 28 27.5C28 26.6716 28.6716 26 29.5 26C30.3284 26 31 26.6716 31 27.5ZM32 27.5C32 28.8807 30.8807 30 29.5 30C28.1193 30 27 28.8807 27 27.5C27 26.1193 28.1193 25 29.5 25C30.8807 25 32 26.1193 32 27.5ZM20.5 32C21.3284 32 22 31.3284 22 30.5C22 29.6716 21.3284 29 20.5 29C19.6716 29 19 29.6716 19 30.5C19 31.3284 19.6716 32 20.5 32ZM20.5 33C21.8807 33 23 31.8807 23 30.5C23 29.1193 21.8807 28 20.5 28C19.1193 28 18 29.1193 18 30.5C18 31.8807 19.1193 33 20.5 33ZM16 30.5C16 31.3284 15.3284 32 14.5 32C13.6716 32 13 31.3284 13 30.5C13 29.6716 13.6716 29 14.5 29C15.3284 29 16 29.6716 16 30.5ZM17 30.5C17 31.8807 15.8807 33 14.5 33C13.1193 33 12 31.8807 12 30.5C12 29.1193 13.1193 28 14.5 28C15.8807 28 17 29.1193 17 30.5Z"/>
</mask>
<path d="M5.5 30C6.88071 30 8 28.8807 8 27.5H6C6 27.7761 5.77614 28 5.5 28V30ZM3 27.5C3 28.8807 4.11929 30 5.5 30V28C5.22386 28 5 27.7761 5 27.5H3ZM5.5 25C4.11929 25 3 26.1193 3 27.5H5C5 27.2239 5.22386 27 5.5 27V25ZM8 27.5C8 26.1193 6.88071 25 5.5 25V27C5.77614 27 6 27.2239 6 27.5H8ZM5.5 31C7.433 31 9 29.433 9 27.5H7C7 28.3284 6.32843 29 5.5 29V31ZM2 27.5C2 29.433 3.567 31 5.5 31V29C4.67157 29 4 28.3284 4 27.5H2ZM5.5 24C3.567 24 2 25.567 2 27.5H4C4 26.6716 4.67157 26 5.5 26V24ZM9 27.5C9 25.567 7.433 24 5.5 24V26C6.32843 26 7 26.6716 7 27.5H9ZM29.5 30C30.8807 30 32 28.8807 32 27.5H30C30 27.7761 29.7761 28 29.5 28V30ZM27 27.5C27 28.8807 28.1193 30 29.5 30V28C29.2239 28 29 27.7761 29 27.5H27ZM29.5 25C28.1193 25 27 26.1193 27 27.5H29C29 27.2239 29.2239 27 29.5 27V25ZM32 27.5C32 26.1193 30.8807 25 29.5 25V27C29.7761 27 30 27.2239 30 27.5H32ZM29.5 31C31.433 31 33 29.433 33 27.5H31C31 28.3284 30.3284 29 29.5 29V31ZM26 27.5C26 29.433 27.567 31 29.5 31V29C28.6716 29 28 28.3284 28 27.5H26ZM29.5 24C27.567 24 26 25.567 26 27.5H28C28 26.6716 28.6716 26 29.5 26V24ZM33 27.5C33 25.567 31.433 24 29.5 24V26C30.3284 26 31 26.6716 31 27.5H33ZM21 30.5C21 30.7761 20.7761 31 20.5 31V33C21.8807 33 23 31.8807 23 30.5H21ZM20.5 30C20.7761 30 21 30.2239 21 30.5H23C23 29.1193 21.8807 28 20.5 28V30ZM20 30.5C20 30.2239 20.2239 30 20.5 30V28C19.1193 28 18 29.1193 18 30.5H20ZM20.5 31C20.2239 31 20 30.7761 20 30.5H18C18 31.8807 19.1193 33 20.5 33V31ZM22 30.5C22 31.3284 21.3284 32 20.5 32V34C22.433 34 24 32.433 24 30.5H22ZM20.5 29C21.3284 29 22 29.6716 22 30.5H24C24 28.567 22.433 27 20.5 27V29ZM19 30.5C19 29.6716 19.6716 29 20.5 29V27C18.567 27 17 28.567 17 30.5H19ZM20.5 32C19.6716 32 19 31.3284 19 30.5H17C17 32.433 18.567 34 20.5 34V32ZM14.5 33C15.8807 33 17 31.8807 17 30.5H15C15 30.7761 14.7761 31 14.5 31V33ZM12 30.5C12 31.8807 13.1193 33 14.5 33V31C14.2239 31 14 30.7761 14 30.5H12ZM14.5 28C13.1193 28 12 29.1193 12 30.5H14C14 30.2239 14.2239 30 14.5 30V28ZM17 30.5C17 29.1193 15.8807 28 14.5 28V30C14.7761 30 15 30.2239 15 30.5H17ZM14.5 34C16.433 34 18 32.433 18 30.5H16C16 31.3284 15.3284 32 14.5 32V34ZM11 30.5C11 32.433 12.567 34 14.5 34V32C13.6716 32 13 31.3284 13 30.5H11ZM14.5 27C12.567 27 11 28.567 11 30.5H13C13 29.6716 13.6716 29 14.5 29V27ZM18 30.5C18 28.567 16.433 27 14.5 27V29C15.3284 29 16 29.6716 16 30.5H18Z" fill="url(#paint1_linear)" mask="url(#path-2-inside-1)"/>
<path d="M5.5 103V112.5H25.5V103M5.5 103H3L6 97.5C6 97.5 11.79 97.5 15.5 97.5M5.5 103H13M25.5 103H28L25 97.5C25 97.5 19.21 97.5 15.5 97.5M25.5 103H18M15.5 103V112M15.5 103H13M15.5 103H18M15.5 97.5C14.5237 99.6479 13 103 13 103M15.5 97.5L18 103" stroke="#D9DADE"/>
<path d="M13.5 93C12.1667 92.6667 9.5 91.2 9.5 88C9.5 84 10 81.5 15.5 81" stroke="#D9DADE"/>
<path d="M17 93C18.3333 92.6667 21 91.2 21 88C21 84 20.5 81.5 15 81" stroke="#D9DADE"/>
<path d="M12.5 93C12.3333 91.5 12.7 88.5 15.5 88.5C16.5 88.5 18.4 89.4 18 93M12 93.5H19V95.5H12V93.5Z" stroke="#D9DADE"/>
<path d="M7.5 181.5L16 173.5L20.5 177L30.9 167M33.5 164.5L30.9 167M30.9 167H6V184H30.9V167Z" stroke="#D9DADE"/>
<path d="M3 189L6 184H31L34 189M3 189H34M3 189V192.5H34V189M31.5 163.5H34.5M34.5 163.5L33.5 164.5M34.5 163.5V166" stroke="#D9DADE"/>
<circle cx="20" cy="258" r="4.5" stroke="#D9DADE"/>
<circle cx="20" cy="258" r="8.5" stroke="#D9DADE"/>
<circle cx="20" cy="258" r="13.5" stroke="#D9DADE"/>
<path d="M20 258L32.5 246M32.5 246V243L35.5 239.5V242.5H39L35.5 246H32.5Z" stroke="#D9DADE"/>
<circle cx="23" cy="336" r="6.5" stroke="#D9DADE"/>
<path d="M17 336C17 336 24.3137 336 29 336M25.5 330V342M23 329.5V342M20 330V342" stroke="#D9DADE"/>
<path d="M10 329C10.1667 334.167 13 345.4 23 349" stroke="#D9DADE"/>
<path d="M6 326C6.21795 332.717 9.92308 347.32 23 352" stroke="#D9DADE"/>
<path d="M36 330C35.8333 334.908 33 345.58 23 349" stroke="#D9DADE"/>
<path d="M40 326C39.7821 332.717 36.0769 347.32 23 352" stroke="#D9DADE"/>
<path d="M23 324.5C21.3333 326.167 16.4 329.4 10 329" stroke="#D9DADE"/>
<path d="M23 320C20.8205 322.206 14.3692 326.484 6 325.955" stroke="#D9DADE"/>
<path d="M23 324C24.6667 326.206 29.6 330.484 36 329.955" stroke="#D9DADE"/>
<path d="M23 320C25.1795 322.206 31.6308 326.484 40 325.955" stroke="#D9DADE"/>
<circle cx="20" cy="411" r="6.5" stroke="#D9DADE"/>
<circle cx="20" cy="411" r="9.5" stroke="#D9DADE"/>
<circle cx="20" cy="411" r="12.5" stroke="#D9DADE"/>
<path d="M13.5 411.5H26.5" stroke="#D9DADE"/>
<path d="M17.5 405V417" stroke="#D9DADE"/>
<path d="M20.5 404.5V417.5" stroke="#D9DADE"/>
<path d="M23 405.5V417" stroke="#D9DADE"/>
<path d="M37.5 430.5L29.5 422.5L29 420.5L31.5 421L39.5 428.5C40.3 430.5 38.5 430.667 37.5 430.5Z" stroke="#D9DADE"/>
<circle cx="61" cy="177" r="3.5" stroke="#D9DADE"/>
<circle cx="61" cy="257" r="3.5" stroke="#D9DADE"/>
<circle cx="61" cy="336" r="3.5" stroke="#D9DADE"/>
<circle cx="61" cy="416" r="3.5" stroke="#D9DADE"/>
<circle cx="61" cy="99" r="3.5" stroke="#D9DADE"/>
<path d="M61 459V103" stroke="#D9DADE"/>
<circle cx="61" cy="16" r="8" fill="url(#paint2_linear)"/>
<circle cx="61" cy="16" r="4" fill="#606FFC"/>
<path d="M61 24V95" stroke="#8995E7"/>
<path d="M87.9077 20V12.1797H90.4644C91.313 12.1797 91.9504 12.3551 92.3765 12.7061C92.8062 13.057 93.021 13.5762 93.021 14.2637C93.021 14.6289 92.9172 14.953 92.7095 15.2358C92.5018 15.5151 92.2189 15.7318 91.8608 15.8857C92.2834 16.0039 92.6164 16.2295 92.8599 16.5625C93.1069 16.8919 93.2305 17.2858 93.2305 17.7441C93.2305 18.446 93.0031 18.9974 92.5483 19.3984C92.0936 19.7995 91.4508 20 90.6201 20H87.9077ZM88.939 16.3423V19.1567H90.6416C91.1214 19.1567 91.4992 19.0332 91.7749 18.7861C92.0542 18.5355 92.1938 18.1917 92.1938 17.7549C92.1938 16.8132 91.6818 16.3423 90.6577 16.3423H88.939ZM88.939 15.5151H90.4966C90.9478 15.5151 91.3076 15.4023 91.5762 15.1768C91.8483 14.9512 91.9844 14.645 91.9844 14.2583C91.9844 13.8286 91.859 13.5171 91.6084 13.3237C91.3577 13.1268 90.9764 13.0283 90.4644 13.0283H88.939V15.5151ZM97.6294 16.8364H95.7925V20H94.7559V12.1797H97.3447C98.2256 12.1797 98.9023 12.3802 99.375 12.7812C99.8512 13.1823 100.089 13.766 100.089 14.5322C100.089 15.0192 99.9569 15.4435 99.6919 15.8052C99.4305 16.1668 99.0653 16.4372 98.5962 16.6162L100.433 19.9355V20H99.3267L97.6294 16.8364ZM95.7925 15.9932H97.377C97.889 15.9932 98.2954 15.8607 98.5962 15.5957C98.9006 15.3307 99.0527 14.9762 99.0527 14.5322C99.0527 14.0488 98.9077 13.6782 98.6177 13.4204C98.3312 13.1626 97.9159 13.0319 97.3716 13.0283H95.7925V15.9932ZM105.858 17.959H102.582L101.846 20H100.782L103.769 12.1797H104.671L107.663 20H106.604L105.858 17.959ZM102.893 17.1104H105.552L104.22 13.4526L102.893 17.1104ZM109.822 20H108.791V12.1797H109.822V20ZM117.723 20H116.686L112.749 13.9736V20H111.712V12.1797H112.749L116.697 18.2329V12.1797H117.723V20ZM121.858 16.5142C120.974 16.2599 120.329 15.9484 119.925 15.5796C119.524 15.2072 119.323 14.7489 119.323 14.2046C119.323 13.5887 119.569 13.0802 120.059 12.6792C120.553 12.2746 121.194 12.0723 121.982 12.0723C122.519 12.0723 122.997 12.1761 123.416 12.3838C123.839 12.5915 124.164 12.8779 124.394 13.2432C124.626 13.6084 124.743 14.0076 124.743 14.4409H123.706C123.706 13.9683 123.556 13.5977 123.255 13.3291C122.954 13.057 122.53 12.9209 121.982 12.9209C121.473 12.9209 121.076 13.0337 120.79 13.2593C120.507 13.4813 120.365 13.791 120.365 14.1885C120.365 14.5072 120.5 14.7775 120.768 14.9995C121.04 15.2179 121.5 15.4185 122.148 15.6011C122.8 15.7837 123.309 15.986 123.674 16.208C124.043 16.4264 124.315 16.6825 124.49 16.9761C124.669 17.2697 124.759 17.6152 124.759 18.0127C124.759 18.6465 124.512 19.1549 124.018 19.5381C123.523 19.9176 122.863 20.1074 122.036 20.1074C121.499 20.1074 120.997 20.0054 120.532 19.8013C120.066 19.5936 119.706 19.3107 119.452 18.9526C119.201 18.5946 119.076 18.1882 119.076 17.7334H120.113C120.113 18.2061 120.286 18.5802 120.634 18.856C120.985 19.1281 121.452 19.2642 122.036 19.2642C122.58 19.2642 122.997 19.1532 123.287 18.9312C123.577 18.7091 123.722 18.4066 123.722 18.0234C123.722 17.6403 123.588 17.3449 123.319 17.1372C123.051 16.9259 122.564 16.7183 121.858 16.5142ZM131.489 13.0283H128.975V20H127.949V13.0283H125.441V12.1797H131.489V13.0283ZM138.514 16.3423C138.514 17.1086 138.385 17.7782 138.127 18.3511C137.87 18.9204 137.504 19.3555 137.032 19.6562C136.559 19.957 136.008 20.1074 135.377 20.1074C134.762 20.1074 134.215 19.957 133.739 19.6562C133.263 19.3519 132.892 18.9204 132.627 18.3618C132.366 17.7996 132.232 17.1497 132.225 16.4121V15.8481C132.225 15.0962 132.355 14.432 132.617 13.8555C132.878 13.279 133.247 12.8385 133.723 12.5342C134.203 12.2262 134.751 12.0723 135.367 12.0723C135.993 12.0723 136.545 12.2244 137.021 12.5288C137.501 12.8296 137.87 13.2682 138.127 13.8447C138.385 14.4176 138.514 15.0854 138.514 15.8481V16.3423ZM137.488 15.8374C137.488 14.91 137.302 14.1992 136.93 13.7051C136.557 13.2074 136.036 12.9585 135.367 12.9585C134.715 12.9585 134.201 13.2074 133.825 13.7051C133.453 14.1992 133.261 14.8867 133.25 15.7676V16.3423C133.25 17.241 133.438 17.9482 133.814 18.4639C134.194 18.9759 134.715 19.2319 135.377 19.2319C136.043 19.2319 136.559 18.9902 136.924 18.5068C137.29 18.0199 137.478 17.3234 137.488 16.4175V15.8374ZM142.929 16.8364H141.092V20H140.056V12.1797H142.645C143.525 12.1797 144.202 12.3802 144.675 12.7812C145.151 13.1823 145.389 13.766 145.389 14.5322C145.389 15.0192 145.257 15.4435 144.992 15.8052C144.73 16.1668 144.365 16.4372 143.896 16.6162L145.733 19.9355V20H144.626L142.929 16.8364ZM141.092 15.9932H142.677C143.189 15.9932 143.595 15.8607 143.896 15.5957C144.2 15.3307 144.353 14.9762 144.353 14.5322C144.353 14.0488 144.208 13.6782 143.917 13.4204C143.631 13.1626 143.216 13.0319 142.671 13.0283H141.092V15.9932ZM148.171 12.1797L150.728 18.5605L153.285 12.1797H154.622V20H153.591V16.9546L153.688 13.6675L151.12 20H150.331L147.769 13.6836L147.871 16.9546V20H146.839V12.1797H148.171Z" fill="#4F4F4F"/>
<path d="M86.9077 103V95.1797H89.1152C89.7956 95.1797 90.3971 95.3301 90.9199 95.6309C91.4427 95.9316 91.8455 96.3595 92.1284 96.9146C92.4149 97.4696 92.5599 98.1069 92.5635 98.8267V99.3262C92.5635 100.064 92.4202 100.71 92.1338 101.265C91.8509 101.82 91.4445 102.246 90.9146 102.543C90.3882 102.841 89.7741 102.993 89.0723 103H86.9077ZM87.939 96.0283V102.157H89.0239C89.8188 102.157 90.4365 101.91 90.877 101.416C91.321 100.921 91.543 100.218 91.543 99.3047V98.8481C91.543 97.9601 91.3335 97.2708 90.9146 96.7803C90.4992 96.2861 89.9084 96.0355 89.1421 96.0283H87.939ZM95.2329 103H94.2017V95.1797H95.2329V103ZM99.4277 99.5142C98.5433 99.2599 97.8988 98.9484 97.4941 98.5796C97.0931 98.2072 96.8926 97.7489 96.8926 97.2046C96.8926 96.5887 97.1379 96.0802 97.6284 95.6792C98.1226 95.2746 98.7635 95.0723 99.5513 95.0723C100.088 95.0723 100.566 95.1761 100.985 95.3838C101.408 95.5915 101.734 95.8779 101.963 96.2432C102.196 96.6084 102.312 97.0076 102.312 97.4409H101.275C101.275 96.9683 101.125 96.5977 100.824 96.3291C100.523 96.057 100.099 95.9209 99.5513 95.9209C99.0428 95.9209 98.6453 96.0337 98.3589 96.2593C98.076 96.4813 97.9346 96.791 97.9346 97.1885C97.9346 97.5072 98.0688 97.7775 98.3374 97.9995C98.6095 98.2179 99.0697 98.4185 99.7178 98.6011C100.369 98.7837 100.878 98.986 101.243 99.208C101.612 99.4264 101.884 99.6825 102.06 99.9761C102.239 100.27 102.328 100.615 102.328 101.013C102.328 101.646 102.081 102.155 101.587 102.538C101.093 102.918 100.432 103.107 99.605 103.107C99.0679 103.107 98.5666 103.005 98.1011 102.801C97.6356 102.594 97.2757 102.311 97.0215 101.953C96.7708 101.595 96.6455 101.188 96.6455 100.733H97.6821C97.6821 101.206 97.8558 101.58 98.2031 101.856C98.554 102.128 99.0213 102.264 99.605 102.264C100.149 102.264 100.566 102.153 100.856 101.931C101.146 101.709 101.292 101.407 101.292 101.023C101.292 100.64 101.157 100.345 100.889 100.137C100.62 99.9259 100.133 99.7183 99.4277 99.5142ZM109.407 100.519C109.311 101.346 109.004 101.985 108.489 102.436C107.977 102.884 107.295 103.107 106.442 103.107C105.519 103.107 104.777 102.776 104.219 102.114C103.664 101.451 103.386 100.565 103.386 99.4551V98.7031C103.386 97.9762 103.515 97.3371 103.773 96.7856C104.034 96.2342 104.403 95.8117 104.879 95.5181C105.356 95.2209 105.907 95.0723 106.534 95.0723C107.364 95.0723 108.03 95.305 108.532 95.7705C109.033 96.2324 109.325 96.8734 109.407 97.6934H108.371C108.281 97.0703 108.086 96.6191 107.785 96.3398C107.488 96.0605 107.071 95.9209 106.534 95.9209C105.875 95.9209 105.357 96.1644 104.981 96.6514C104.609 97.1383 104.423 97.8312 104.423 98.73V99.4873C104.423 100.336 104.6 101.011 104.955 101.512C105.309 102.014 105.805 102.264 106.442 102.264C107.015 102.264 107.454 102.135 107.758 101.877C108.066 101.616 108.27 101.163 108.371 100.519H109.407ZM116.325 95.1797V100.497C116.322 101.235 116.089 101.838 115.627 102.307C115.169 102.776 114.546 103.039 113.758 103.097L113.484 103.107C112.628 103.107 111.946 102.876 111.438 102.415C110.929 101.953 110.671 101.317 110.664 100.508V95.1797H111.685V100.476C111.685 101.041 111.84 101.482 112.152 101.797C112.463 102.108 112.907 102.264 113.484 102.264C114.068 102.264 114.513 102.108 114.821 101.797C115.133 101.485 115.289 101.047 115.289 100.481V95.1797H116.325ZM120.257 99.5142C119.372 99.2599 118.728 98.9484 118.323 98.5796C117.922 98.2072 117.722 97.7489 117.722 97.2046C117.722 96.5887 117.967 96.0802 118.458 95.6792C118.952 95.2746 119.593 95.0723 120.38 95.0723C120.917 95.0723 121.396 95.1761 121.814 95.3838C122.237 95.5915 122.563 95.8779 122.792 96.2432C123.025 96.6084 123.141 97.0076 123.141 97.4409H122.104C122.104 96.9683 121.954 96.5977 121.653 96.3291C121.353 96.057 120.928 95.9209 120.38 95.9209C119.872 95.9209 119.474 96.0337 119.188 96.2593C118.905 96.4813 118.764 96.791 118.764 97.1885C118.764 97.5072 118.898 97.7775 119.167 97.9995C119.439 98.2179 119.899 98.4185 120.547 98.6011C121.199 98.7837 121.707 98.986 122.072 99.208C122.441 99.4264 122.713 99.6825 122.889 99.9761C123.068 100.27 123.157 100.615 123.157 101.013C123.157 101.646 122.91 102.155 122.416 102.538C121.922 102.918 121.261 103.107 120.434 103.107C119.897 103.107 119.396 103.005 118.93 102.801C118.465 102.594 118.105 102.311 117.851 101.953C117.6 101.595 117.475 101.188 117.475 100.733H118.511C118.511 101.206 118.685 101.58 119.032 101.856C119.383 102.128 119.85 102.264 120.434 102.264C120.978 102.264 121.396 102.153 121.686 101.931C121.976 101.709 122.121 101.407 122.121 101.023C122.121 100.64 121.986 100.345 121.718 100.137C121.449 99.9259 120.962 99.7183 120.257 99.5142ZM126.788 99.5142C125.904 99.2599 125.259 98.9484 124.854 98.5796C124.453 98.2072 124.253 97.7489 124.253 97.2046C124.253 96.5887 124.498 96.0802 124.989 95.6792C125.483 95.2746 126.124 95.0723 126.912 95.0723C127.449 95.0723 127.927 95.1761 128.346 95.3838C128.768 95.5915 129.094 95.8779 129.323 96.2432C129.556 96.6084 129.672 97.0076 129.672 97.4409H128.636C128.636 96.9683 128.485 96.5977 128.185 96.3291C127.884 96.057 127.459 95.9209 126.912 95.9209C126.403 95.9209 126.006 96.0337 125.719 96.2593C125.436 96.4813 125.295 96.791 125.295 97.1885C125.295 97.5072 125.429 97.7775 125.698 97.9995C125.97 98.2179 126.43 98.4185 127.078 98.6011C127.73 98.7837 128.238 98.986 128.604 99.208C128.972 99.4264 129.244 99.6825 129.42 99.9761C129.599 100.27 129.688 100.615 129.688 101.013C129.688 101.646 129.441 102.155 128.947 102.538C128.453 102.918 127.792 103.107 126.965 103.107C126.428 103.107 125.927 103.005 125.461 102.801C124.996 102.594 124.636 102.311 124.382 101.953C124.131 101.595 124.006 101.188 124.006 100.733H125.042C125.042 101.206 125.216 101.58 125.563 101.856C125.914 102.128 126.382 102.264 126.965 102.264C127.51 102.264 127.927 102.153 128.217 101.931C128.507 101.709 128.652 101.407 128.652 101.023C128.652 100.64 128.518 100.345 128.249 100.137C127.98 99.9259 127.493 99.7183 126.788 99.5142ZM134.85 103H133.819V95.1797H134.85V103ZM136.741 103V95.1797H138.948C139.629 95.1797 140.23 95.3301 140.753 95.6309C141.276 95.9316 141.679 96.3595 141.961 96.9146C142.248 97.4696 142.393 98.1069 142.396 98.8267V99.3262C142.396 100.064 142.253 100.71 141.967 101.265C141.684 101.82 141.278 102.246 140.748 102.543C140.221 102.841 139.607 102.993 138.905 103H136.741ZM137.772 96.0283V102.157H138.857C139.652 102.157 140.27 101.91 140.71 101.416C141.154 100.921 141.376 100.218 141.376 99.3047V98.8481C141.376 97.9601 141.167 97.2708 140.748 96.7803C140.332 96.2861 139.741 96.0355 138.975 96.0283H137.772ZM148.38 99.3853H144.991V102.157H148.928V103H143.959V95.1797H148.874V96.0283H144.991V98.542H148.38V99.3853ZM154.53 100.959H151.253L150.518 103H149.454L152.44 95.1797H153.343L156.334 103H155.276L154.53 100.959ZM151.565 100.11H154.224L152.892 96.4526L151.565 100.11ZM159.691 99.5142C158.807 99.2599 158.162 98.9484 157.758 98.5796C157.357 98.2072 157.156 97.7489 157.156 97.2046C157.156 96.5887 157.402 96.0802 157.892 95.6792C158.386 95.2746 159.027 95.0723 159.815 95.0723C160.352 95.0723 160.83 95.1761 161.249 95.3838C161.672 95.5915 161.997 95.8779 162.227 96.2432C162.459 96.6084 162.576 97.0076 162.576 97.4409H161.539C161.539 96.9683 161.389 96.5977 161.088 96.3291C160.787 96.057 160.363 95.9209 159.815 95.9209C159.306 95.9209 158.909 96.0337 158.623 96.2593C158.34 96.4813 158.198 96.791 158.198 97.1885C158.198 97.5072 158.333 97.7775 158.601 97.9995C158.873 98.2179 159.333 98.4185 159.981 98.6011C160.633 98.7837 161.142 98.986 161.507 99.208C161.876 99.4264 162.148 99.6825 162.323 99.9761C162.502 100.27 162.592 100.615 162.592 101.013C162.592 101.646 162.345 102.155 161.851 102.538C161.356 102.918 160.696 103.107 159.869 103.107C159.332 103.107 158.83 103.005 158.365 102.801C157.899 102.594 157.539 102.311 157.285 101.953C157.035 101.595 156.909 101.188 156.909 100.733H157.946C157.946 101.206 158.119 101.58 158.467 101.856C158.818 102.128 159.285 102.264 159.869 102.264C160.413 102.264 160.83 102.153 161.12 101.931C161.41 101.709 161.555 101.407 161.555 101.023C161.555 100.64 161.421 100.345 161.152 100.137C160.884 99.9259 160.397 99.7183 159.691 99.5142Z" fill="#9B9B9B"/>
<path d="M88.2397 173.18L90.7964 179.561L93.353 173.18H94.6904V181H93.6592V177.955L93.7559 174.667L91.1885 181H90.3989L87.8369 174.684L87.939 177.955V181H86.9077V173.18H88.2397ZM100.926 178.959H97.6499L96.9141 181H95.8506L98.8369 173.18H99.7393L102.731 181H101.673L100.926 178.959ZM97.9614 178.11H100.62L99.2881 174.453L97.9614 178.11ZM105.771 177.364L104.815 178.357V181H103.784V173.18H104.815V177.047L108.29 173.18H109.536L106.458 176.633L109.778 181H108.542L105.771 177.364ZM115.101 177.385H111.711V180.157H115.648V181H110.68V173.18H115.595V174.028H111.711V176.542H115.101V177.385ZM120.692 177.938V181H119.661V173.18H122.545C123.401 173.18 124.07 173.398 124.554 173.835C125.041 174.272 125.284 174.85 125.284 175.57C125.284 176.329 125.046 176.914 124.57 177.326C124.097 177.734 123.419 177.938 122.534 177.938H120.692ZM120.692 177.095H122.545C123.096 177.095 123.519 176.966 123.812 176.708C124.106 176.447 124.253 176.071 124.253 175.581C124.253 175.115 124.106 174.743 123.812 174.463C123.519 174.184 123.116 174.039 122.604 174.028H120.692V177.095ZM129.468 177.836H127.631V181H126.595V173.18H129.184C130.064 173.18 130.741 173.38 131.214 173.781C131.69 174.182 131.928 174.766 131.928 175.532C131.928 176.019 131.796 176.444 131.531 176.805C131.269 177.167 130.904 177.437 130.435 177.616L132.272 180.936V181H131.166L129.468 177.836ZM127.631 176.993H129.216C129.728 176.993 130.134 176.861 130.435 176.596C130.739 176.331 130.892 175.976 130.892 175.532C130.892 175.049 130.747 174.678 130.457 174.42C130.17 174.163 129.755 174.032 129.21 174.028H127.631V176.993ZM139.394 177.342C139.394 178.109 139.265 178.778 139.007 179.351C138.75 179.92 138.384 180.355 137.912 180.656C137.439 180.957 136.888 181.107 136.257 181.107C135.641 181.107 135.095 180.957 134.619 180.656C134.143 180.352 133.772 179.92 133.507 179.362C133.246 178.8 133.112 178.15 133.104 177.412V176.848C133.104 176.096 133.235 175.432 133.497 174.855C133.758 174.279 134.127 173.839 134.603 173.534C135.083 173.226 135.631 173.072 136.247 173.072C136.873 173.072 137.425 173.224 137.901 173.529C138.381 173.83 138.75 174.268 139.007 174.845C139.265 175.418 139.394 176.085 139.394 176.848V177.342ZM138.368 176.837C138.368 175.91 138.182 175.199 137.81 174.705C137.437 174.207 136.916 173.958 136.247 173.958C135.595 173.958 135.081 174.207 134.705 174.705C134.333 175.199 134.141 175.887 134.13 176.768V177.342C134.13 178.241 134.318 178.948 134.694 179.464C135.074 179.976 135.595 180.232 136.257 180.232C136.923 180.232 137.439 179.99 137.804 179.507C138.169 179.02 138.357 178.323 138.368 177.417V176.837ZM144.217 173.18H145.254V178.717C145.254 179.466 145.028 180.051 144.577 180.474C144.13 180.896 143.532 181.107 142.783 181.107C142.006 181.107 141.401 180.909 140.968 180.511C140.535 180.114 140.318 179.557 140.318 178.841H141.349C141.349 179.288 141.471 179.638 141.714 179.888C141.961 180.139 142.318 180.264 142.783 180.264C143.209 180.264 143.553 180.13 143.814 179.861C144.079 179.593 144.214 179.217 144.217 178.733V173.18ZM151.431 177.385H148.042V180.157H151.979V181H147.01V173.18H151.925V174.028H148.042V176.542H151.431V177.385ZM159.015 178.519C158.918 179.346 158.612 179.985 158.096 180.436C157.584 180.884 156.902 181.107 156.05 181.107C155.126 181.107 154.385 180.776 153.826 180.114C153.271 179.451 152.994 178.565 152.994 177.455V176.703C152.994 175.976 153.123 175.337 153.38 174.786C153.642 174.234 154.011 173.812 154.487 173.518C154.963 173.221 155.514 173.072 156.141 173.072C156.972 173.072 157.638 173.305 158.139 173.771C158.64 174.232 158.932 174.873 159.015 175.693H157.978C157.889 175.07 157.693 174.619 157.393 174.34C157.095 174.061 156.678 173.921 156.141 173.921C155.482 173.921 154.965 174.164 154.589 174.651C154.216 175.138 154.03 175.831 154.03 176.73V177.487C154.03 178.336 154.208 179.011 154.562 179.512C154.917 180.014 155.412 180.264 156.05 180.264C156.623 180.264 157.061 180.135 157.366 179.877C157.674 179.616 157.878 179.163 157.978 178.519H159.015ZM165.669 174.028H163.156V181H162.13V174.028H159.622V173.18H165.669V174.028ZM167.936 181H166.905V173.18H167.936V181ZM175.842 177.342C175.842 178.109 175.713 178.778 175.456 179.351C175.198 179.92 174.833 180.355 174.36 180.656C173.887 180.957 173.336 181.107 172.706 181.107C172.09 181.107 171.544 180.957 171.067 180.656C170.591 180.352 170.221 179.92 169.956 179.362C169.694 178.8 169.56 178.15 169.553 177.412V176.848C169.553 176.096 169.683 175.432 169.945 174.855C170.206 174.279 170.575 173.839 171.051 173.534C171.531 173.226 172.079 173.072 172.695 173.072C173.321 173.072 173.873 173.224 174.349 173.529C174.829 173.83 175.198 174.268 175.456 174.845C175.713 175.418 175.842 176.085 175.842 176.848V177.342ZM174.816 176.837C174.816 175.91 174.63 175.199 174.258 174.705C173.885 174.207 173.364 173.958 172.695 173.958C172.043 173.958 171.529 174.207 171.153 174.705C170.781 175.199 170.589 175.887 170.579 176.768V177.342C170.579 178.241 170.767 178.948 171.143 179.464C171.522 179.976 172.043 180.232 172.706 180.232C173.372 180.232 173.887 179.99 174.252 179.507C174.618 179.02 174.806 178.323 174.816 177.417V176.837ZM183.399 181H182.363L178.426 174.974V181H177.389V173.18H178.426L182.374 179.233V173.18H183.399V181ZM187.535 177.514C186.651 177.26 186.006 176.948 185.602 176.58C185.201 176.207 185 175.749 185 175.205C185 174.589 185.245 174.08 185.736 173.679C186.23 173.275 186.871 173.072 187.659 173.072C188.196 173.072 188.674 173.176 189.093 173.384C189.515 173.591 189.841 173.878 190.07 174.243C190.303 174.608 190.419 175.008 190.419 175.441H189.383C189.383 174.968 189.232 174.598 188.932 174.329C188.631 174.057 188.207 173.921 187.659 173.921C187.15 173.921 186.753 174.034 186.466 174.259C186.183 174.481 186.042 174.791 186.042 175.188C186.042 175.507 186.176 175.778 186.445 176C186.717 176.218 187.177 176.418 187.825 176.601C188.477 176.784 188.985 176.986 189.351 177.208C189.719 177.426 189.992 177.682 190.167 177.976C190.346 178.27 190.436 178.615 190.436 179.013C190.436 179.646 190.188 180.155 189.694 180.538C189.2 180.918 188.54 181.107 187.712 181.107C187.175 181.107 186.674 181.005 186.208 180.801C185.743 180.594 185.383 180.311 185.129 179.953C184.878 179.595 184.753 179.188 184.753 178.733H185.79C185.79 179.206 185.963 179.58 186.311 179.856C186.661 180.128 187.129 180.264 187.712 180.264C188.257 180.264 188.674 180.153 188.964 179.931C189.254 179.709 189.399 179.407 189.399 179.023C189.399 178.64 189.265 178.345 188.996 178.137C188.728 177.926 188.241 177.718 187.535 177.514Z" fill="#9B9B9B"/>
<path d="M89.2119 257.514C88.3275 257.26 87.6829 256.948 87.2783 256.58C86.8773 256.207 86.6768 255.749 86.6768 255.205C86.6768 254.589 86.922 254.08 87.4126 253.679C87.9067 253.275 88.5477 253.072 89.3354 253.072C89.8726 253.072 90.3506 253.176 90.7695 253.384C91.1921 253.591 91.5179 253.878 91.7471 254.243C91.9798 254.608 92.0962 255.008 92.0962 255.441H91.0596C91.0596 254.968 90.9092 254.598 90.6084 254.329C90.3076 254.057 89.8833 253.921 89.3354 253.921C88.827 253.921 88.4295 254.034 88.1431 254.259C87.8602 254.481 87.7188 254.791 87.7188 255.188C87.7188 255.507 87.853 255.778 88.1216 256C88.3937 256.218 88.8538 256.418 89.502 256.601C90.1536 256.784 90.6621 256.986 91.0273 257.208C91.3962 257.426 91.6683 257.682 91.8438 257.976C92.0228 258.27 92.1123 258.615 92.1123 259.013C92.1123 259.646 91.8652 260.155 91.3711 260.538C90.877 260.918 90.2163 261.107 89.3892 261.107C88.8521 261.107 88.3507 261.005 87.8853 260.801C87.4198 260.594 87.0599 260.311 86.8057 259.953C86.555 259.595 86.4297 259.188 86.4297 258.733H87.4663C87.4663 259.206 87.64 259.58 87.9873 259.856C88.3382 260.128 88.8055 260.264 89.3892 260.264C89.9334 260.264 90.3506 260.153 90.6406 259.931C90.9307 259.709 91.0757 259.407 91.0757 259.023C91.0757 258.64 90.9414 258.345 90.6729 258.137C90.4043 257.926 89.9173 257.718 89.2119 257.514ZM97.8594 257.385H94.4702V260.157H98.4072V261H93.439V253.18H98.3535V254.028H94.4702V256.542H97.8594V257.385ZM100.728 260.157H104.434V261H99.6909V253.18H100.728V260.157ZM110.03 257.385H106.641V260.157H110.578V261H105.61V253.18H110.524V254.028H106.641V256.542H110.03V257.385ZM117.614 258.519C117.518 259.346 117.211 259.985 116.696 260.436C116.184 260.884 115.502 261.107 114.649 261.107C113.726 261.107 112.984 260.776 112.426 260.114C111.871 259.451 111.593 258.565 111.593 257.455V256.703C111.593 255.976 111.722 255.337 111.98 254.786C112.241 254.234 112.61 253.812 113.086 253.518C113.563 253.221 114.114 253.072 114.741 253.072C115.571 253.072 116.237 253.305 116.739 253.771C117.24 254.232 117.532 254.873 117.614 255.693H116.578C116.488 255.07 116.293 254.619 115.992 254.34C115.695 254.061 115.278 253.921 114.741 253.921C114.082 253.921 113.564 254.164 113.188 254.651C112.816 255.138 112.63 255.831 112.63 256.73V257.487C112.63 258.336 112.807 259.011 113.162 259.512C113.516 260.014 114.012 260.264 114.649 260.264C115.222 260.264 115.661 260.135 115.965 259.877C116.273 259.616 116.477 259.163 116.578 258.519H117.614ZM124.269 254.028H121.755V261H120.729V254.028H118.221V253.18H124.269V254.028ZM130.247 257.514C129.363 257.26 128.718 256.948 128.313 256.58C127.912 256.207 127.712 255.749 127.712 255.205C127.712 254.589 127.957 254.08 128.448 253.679C128.942 253.275 129.583 253.072 130.371 253.072C130.908 253.072 131.386 253.176 131.805 253.384C132.227 253.591 132.553 253.878 132.782 254.243C133.015 254.608 133.131 255.008 133.131 255.441H132.095C132.095 254.968 131.944 254.598 131.644 254.329C131.343 254.057 130.918 253.921 130.371 253.921C129.862 253.921 129.465 254.034 129.178 254.259C128.895 254.481 128.754 254.791 128.754 255.188C128.754 255.507 128.888 255.778 129.157 256C129.429 256.218 129.889 256.418 130.537 256.601C131.189 256.784 131.697 256.986 132.062 257.208C132.431 257.426 132.703 257.682 132.879 257.976C133.058 258.27 133.147 258.615 133.147 259.013C133.147 259.646 132.9 260.155 132.406 260.538C131.912 260.918 131.251 261.107 130.424 261.107C129.887 261.107 129.386 261.005 128.92 260.801C128.455 260.594 128.095 260.311 127.841 259.953C127.59 259.595 127.465 259.188 127.465 258.733H128.501C128.501 259.206 128.675 259.58 129.022 259.856C129.373 260.128 129.841 260.264 130.424 260.264C130.969 260.264 131.386 260.153 131.676 259.931C131.966 259.709 132.111 259.407 132.111 259.023C132.111 258.64 131.977 258.345 131.708 258.137C131.439 257.926 130.952 257.718 130.247 257.514ZM139.877 254.028H137.364V261H136.338V254.028H133.83V253.18H139.877V254.028ZM143.906 257.836H142.069V261H141.032V253.18H143.621C144.502 253.18 145.179 253.38 145.651 253.781C146.128 254.182 146.366 254.766 146.366 255.532C146.366 256.019 146.233 256.444 145.968 256.805C145.707 257.167 145.342 257.437 144.873 257.616L146.709 260.936V261H145.603L143.906 257.836ZM142.069 256.993H143.653C144.165 256.993 144.572 256.861 144.873 256.596C145.177 256.331 145.329 255.976 145.329 255.532C145.329 255.049 145.184 254.678 144.894 254.42C144.608 254.163 144.192 254.032 143.648 254.028H142.069V256.993ZM152.134 258.959H148.858L148.122 261H147.059L150.045 253.18H150.947L153.939 261H152.881L152.134 258.959ZM149.169 258.11H151.828L150.496 254.453L149.169 258.11ZM159.697 254.028H157.183V261H156.157V254.028H153.649V253.18H159.697V254.028ZM165.277 257.385H161.888V260.157H165.825V261H160.857V253.18H165.771V254.028H161.888V256.542H165.277V257.385ZM172.883 259.974C172.618 260.354 172.247 260.638 171.771 260.828C171.298 261.014 170.747 261.107 170.117 261.107C169.479 261.107 168.914 260.959 168.419 260.662C167.925 260.361 167.542 259.935 167.27 259.383C167.001 258.832 166.864 258.193 166.856 257.466V256.784C166.856 255.606 167.13 254.693 167.678 254.044C168.23 253.396 169.003 253.072 169.999 253.072C170.815 253.072 171.472 253.282 171.97 253.701C172.467 254.116 172.772 254.707 172.883 255.473H171.852C171.658 254.438 171.042 253.921 170.004 253.921C169.313 253.921 168.788 254.164 168.43 254.651C168.076 255.135 167.897 255.837 167.893 256.757V257.396C167.893 258.273 168.094 258.972 168.495 259.491C168.896 260.006 169.438 260.264 170.122 260.264C170.509 260.264 170.847 260.221 171.137 260.135C171.427 260.049 171.667 259.904 171.857 259.7V257.944H170.047V257.106H172.883V259.974ZM176.992 257.106L179.033 253.18H180.204L177.507 258.083V261H176.476V258.083L173.78 253.18H174.961L176.992 257.106Z" fill="#9B9B9B"/>
<path d="M89.2119 338.514C88.3275 338.26 87.6829 337.948 87.2783 337.58C86.8773 337.207 86.6768 336.749 86.6768 336.205C86.6768 335.589 86.922 335.08 87.4126 334.679C87.9067 334.275 88.5477 334.072 89.3354 334.072C89.8726 334.072 90.3506 334.176 90.7695 334.384C91.1921 334.591 91.5179 334.878 91.7471 335.243C91.9798 335.608 92.0962 336.008 92.0962 336.441H91.0596C91.0596 335.968 90.9092 335.598 90.6084 335.329C90.3076 335.057 89.8833 334.921 89.3354 334.921C88.827 334.921 88.4295 335.034 88.1431 335.259C87.8602 335.481 87.7188 335.791 87.7188 336.188C87.7188 336.507 87.853 336.778 88.1216 337C88.3937 337.218 88.8538 337.418 89.502 337.601C90.1536 337.784 90.6621 337.986 91.0273 338.208C91.3962 338.426 91.6683 338.682 91.8438 338.976C92.0228 339.27 92.1123 339.615 92.1123 340.013C92.1123 340.646 91.8652 341.155 91.3711 341.538C90.877 341.918 90.2163 342.107 89.3892 342.107C88.8521 342.107 88.3507 342.005 87.8853 341.801C87.4198 341.594 87.0599 341.311 86.8057 340.953C86.555 340.595 86.4297 340.188 86.4297 339.733H87.4663C87.4663 340.206 87.64 340.58 87.9873 340.856C88.3382 341.128 88.8055 341.264 89.3892 341.264C89.9334 341.264 90.3506 341.153 90.6406 340.931C90.9307 340.709 91.0757 340.407 91.0757 340.023C91.0757 339.64 90.9414 339.345 90.6729 339.137C90.4043 338.926 89.9173 338.718 89.2119 338.514ZM97.8594 338.385H94.4702V341.157H98.4072V342H93.439V334.18H98.3535V335.028H94.4702V337.542H97.8594V338.385ZM105.707 338.342C105.707 339.109 105.578 339.778 105.32 340.351C105.062 340.92 104.697 341.355 104.224 341.656C103.751 341.957 103.2 342.107 102.57 342.107C101.954 342.107 101.408 341.957 100.932 341.656C100.455 341.352 100.085 340.92 99.8198 340.362C99.5584 339.8 99.4242 339.15 99.417 338.412V337.848C99.417 337.096 99.5477 336.432 99.8091 335.855C100.07 335.279 100.439 334.839 100.916 334.534C101.395 334.226 101.943 334.072 102.559 334.072C103.186 334.072 103.737 334.224 104.213 334.529C104.693 334.83 105.062 335.268 105.32 335.845C105.578 336.418 105.707 337.085 105.707 337.848V338.342ZM104.681 337.837C104.681 336.91 104.494 336.199 104.122 335.705C103.75 335.207 103.229 334.958 102.559 334.958C101.907 334.958 101.394 335.207 101.018 335.705C100.645 336.199 100.454 336.887 100.443 337.768V338.342C100.443 339.241 100.631 339.948 101.007 340.464C101.386 340.976 101.907 341.232 102.57 341.232C103.236 341.232 103.751 340.99 104.117 340.507C104.482 340.02 104.67 339.323 104.681 338.417V337.837ZM115.17 335.028H112.657V342H111.631V335.028H109.123V334.18H115.17V335.028ZM120.219 339.959H116.943L116.207 342H115.144L118.13 334.18H119.032L122.024 342H120.966L120.219 339.959ZM117.254 339.11H119.913L118.581 335.453L117.254 339.11ZM125.945 338.836H124.108V342H123.071V334.18H125.66C126.541 334.18 127.218 334.38 127.69 334.781C128.167 335.182 128.405 335.766 128.405 336.532C128.405 337.019 128.272 337.444 128.007 337.805C127.746 338.167 127.381 338.437 126.912 338.616L128.749 341.936V342H127.642L125.945 338.836ZM124.108 337.993H125.692C126.204 337.993 126.611 337.861 126.912 337.596C127.216 337.331 127.368 336.976 127.368 336.532C127.368 336.049 127.223 335.678 126.933 335.42C126.647 335.163 126.231 335.032 125.687 335.028H124.108V337.993ZM135.629 340.974C135.364 341.354 134.993 341.638 134.517 341.828C134.044 342.014 133.493 342.107 132.863 342.107C132.225 342.107 131.66 341.959 131.166 341.662C130.671 341.361 130.288 340.935 130.016 340.383C129.748 339.832 129.61 339.193 129.603 338.466V337.784C129.603 336.606 129.876 335.693 130.424 335.044C130.976 334.396 131.749 334.072 132.745 334.072C133.561 334.072 134.218 334.282 134.716 334.701C135.214 335.116 135.518 335.707 135.629 336.473H134.598C134.404 335.438 133.788 334.921 132.75 334.921C132.059 334.921 131.534 335.164 131.176 335.651C130.822 336.135 130.643 336.837 130.639 337.757V338.396C130.639 339.273 130.84 339.972 131.241 340.491C131.642 341.006 132.184 341.264 132.868 341.264C133.255 341.264 133.593 341.221 133.883 341.135C134.173 341.049 134.413 340.904 134.603 340.7V338.944H132.793V338.106H135.629V340.974ZM141.773 338.385H138.384V341.157H142.321V342H137.353V334.18H142.268V335.028H138.384V337.542H141.773V338.385ZM149.116 335.028H146.602V342H145.576V335.028H143.068V334.18H149.116V335.028Z" fill="#9B9B9B"/>
<path d="M89.5942 417.535L89.7446 418.566L89.9648 417.637L91.5117 412.18H92.3818L93.8911 417.637L94.106 418.582L94.2725 417.529L95.4863 412.18H96.5229L94.627 420H93.687L92.0757 414.301L91.9521 413.705L91.8286 414.301L90.1582 420H89.2183L87.3276 412.18H88.3589L89.5942 417.535ZM98.7788 420H97.7476V412.18H98.7788V420ZM106.68 420H105.643L101.706 413.974V420H100.669V412.18H101.706L105.654 418.233V412.18H106.68V420ZM115.558 417.959H112.282L111.546 420H110.482L113.469 412.18H114.371L117.363 420H116.305L115.558 417.959ZM112.593 417.11H115.252L113.92 413.453L112.593 417.11ZM119.726 417.535L119.876 418.566L120.097 417.637L121.644 412.18H122.514L124.023 417.637L124.238 418.582L124.404 417.529L125.618 412.18H126.655L124.759 420H123.819L122.208 414.301L122.084 413.705L121.96 414.301L120.29 420H119.35L117.459 412.18H118.491L119.726 417.535ZM131.886 417.959H128.61L127.874 420H126.811L129.797 412.18H130.699L133.691 420H132.633L131.886 417.959ZM128.921 417.11H131.58L130.248 413.453L128.921 417.11ZM137.612 416.836H135.775V420H134.738V412.18H137.327C138.208 412.18 138.885 412.38 139.357 412.781C139.834 413.182 140.072 413.766 140.072 414.532C140.072 415.019 139.939 415.444 139.674 415.805C139.413 416.167 139.048 416.437 138.579 416.616L140.416 419.936V420H139.309L137.612 416.836ZM135.775 415.993H137.359C137.871 415.993 138.278 415.861 138.579 415.596C138.883 415.331 139.035 414.976 139.035 414.532C139.035 414.049 138.89 413.678 138.6 413.42C138.314 413.163 137.898 413.032 137.354 413.028H135.775V415.993ZM141.522 420V412.18H143.729C144.41 412.18 145.011 412.33 145.534 412.631C146.057 412.932 146.46 413.36 146.743 413.915C147.029 414.47 147.174 415.107 147.178 415.827V416.326C147.178 417.064 147.035 417.71 146.748 418.265C146.465 418.82 146.059 419.246 145.529 419.543C145.002 419.841 144.388 419.993 143.687 420H141.522ZM142.553 413.028V419.157H143.638C144.433 419.157 145.051 418.91 145.491 418.416C145.935 417.921 146.157 417.218 146.157 416.305V415.848C146.157 414.96 145.948 414.271 145.529 413.78C145.113 413.286 144.523 413.035 143.756 413.028H142.553ZM151.045 416.514C150.16 416.26 149.516 415.948 149.111 415.58C148.71 415.207 148.51 414.749 148.51 414.205C148.51 413.589 148.755 413.08 149.246 412.679C149.74 412.275 150.381 412.072 151.168 412.072C151.706 412.072 152.184 412.176 152.603 412.384C153.025 412.591 153.351 412.878 153.58 413.243C153.813 413.608 153.929 414.008 153.929 414.441H152.893C152.893 413.968 152.742 413.598 152.441 413.329C152.141 413.057 151.716 412.921 151.168 412.921C150.66 412.921 150.263 413.034 149.976 413.259C149.693 413.481 149.552 413.791 149.552 414.188C149.552 414.507 149.686 414.778 149.955 415C150.227 415.218 150.687 415.418 151.335 415.601C151.987 415.784 152.495 415.986 152.86 416.208C153.229 416.426 153.501 416.682 153.677 416.976C153.856 417.27 153.945 417.615 153.945 418.013C153.945 418.646 153.698 419.155 153.204 419.538C152.71 419.918 152.049 420.107 151.222 420.107C150.685 420.107 150.184 420.005 149.718 419.801C149.253 419.594 148.893 419.311 148.639 418.953C148.388 418.595 148.263 418.188 148.263 417.733H149.299C149.299 418.206 149.473 418.58 149.82 418.856C150.171 419.128 150.639 419.264 151.222 419.264C151.766 419.264 152.184 419.153 152.474 418.931C152.764 418.709 152.909 418.407 152.909 418.023C152.909 417.64 152.774 417.345 152.506 417.137C152.237 416.926 151.75 416.718 151.045 416.514Z" fill="#9B9B9B"/>
<defs>
<linearGradient id="paint0_linear" x1="7.61811" y1="25.9" x2="24.3053" y2="1.73955" gradientUnits="userSpaceOnUse">
<stop stop-color="#B1DEFD"/>
<stop offset="1" stop-color="#B2B6E5"/>
</linearGradient>
<linearGradient id="paint1_linear" x1="8.8" y1="32.2" x2="11.0354" y2="22.3906" gradientUnits="userSpaceOnUse">
<stop stop-color="#B1DEFD"/>
<stop offset="1" stop-color="#B2B6E5"/>
</linearGradient>
<linearGradient id="paint2_linear" x1="56.2" y1="22.4" x2="66.3333" y2="10.1333" gradientUnits="userSpaceOnUse">
<stop stop-color="#B1DEFD"/>
<stop offset="1" stop-color="#B2B6E5"/>
</linearGradient>
</defs>
</svg>
